<?xml version="1.0" encoding="utf-8"?>
<!-- Generator: Adobe Illustrator 27.5.0, SVG Export Plug-In . SVG Version: 6.00 Build 0)  -->
<svg version="1.1" id="Layer_1" xmlns="http://www.w3.org/2000/svg" xmlns:xlink="http://www.w3.org/1999/xlink" x="0px" y="0px"
	width="28px" height="36px" viewBox="0 0 28.83 36" style="enable-background:new 0 0 28.83 36;" xml:space="preserve">
<style type="text/css">
	.st0{fill:#FFFFFF;}
</style>
<g>
	<path class="st0" d="M7.36,19.3c-0.42-1.34-0.85-2.67-1.27-4c-0.32-1.01-0.65-2.01-0.95-3.03C4.77,11,5.26,9.67,6.33,8.92
		c1.06-0.74,2.49-0.74,3.55,0.02c0.58,0.41,0.95,0.97,1.16,1.64c0.38,1.22,0.77,2.43,1.16,3.64c0.03,0.1,0.08,0.21,0.11,0.31
		c1.7-0.75,2.33-0.75,3.63-0.02c1.21-1.2,2.58-1.41,4.17-0.53c0.05-0.07,0.1-0.18,0.18-0.26c1.55-1.54,4.27-1,4.99,1.06
		c0.84,2.4,1.6,4.84,2.29,7.29c0.5,1.76,0.24,3.5-0.53,5.16c-0.1,0.21-0.12,0.39-0.06,0.61c0.66,2.31-0.51,4.67-2.79,5.44
		c-2.38,0.81-4.78,1.57-7.18,2.28c-1.97,0.59-4.04-0.33-5.05-2.11c-0.07-0.13-0.23-0.26-0.37-0.3c-3-0.9-4.97-2.84-5.95-5.8
		c-0.31-0.94-0.67-1.88-0.82-2.85c-0.32-2.14,0.52-3.82,2.29-5.04C7.2,19.41,7.27,19.36,7.36,19.3z M8.01,21.37
		c-0.98,0.65-1.44,2.02-1.1,3.21c0.21,0.73,0.45,1.45,0.7,2.18c0.81,2.44,2.48,3.95,4.98,4.51c0.52,0.12,0.84,0.38,1.03,0.87
		c0.45,1.17,1.66,1.81,2.85,1.44c2.37-0.72,4.73-1.48,7.09-2.25c0.81-0.27,1.3-0.89,1.5-1.72c0.14-0.56,0.02-1.09-0.18-1.6
		c-0.17-0.46-0.14-0.87,0.11-1.3c0.52-0.89,0.75-1.87,0.74-2.91c0-0.81-0.22-1.57-0.47-2.33c-0.62-1.94-1.23-3.88-1.85-5.82
		c-0.19-0.6-0.73-0.87-1.29-0.69c-0.53,0.16-0.81,0.7-0.66,1.28c0.04,0.17,0.1,0.33,0.15,0.49c0.22,0.69-0.02,1.25-0.61,1.45
		c-0.58,0.19-1.12-0.13-1.34-0.82c-0.12-0.38-0.24-0.76-0.37-1.14c-0.2-0.56-0.75-0.84-1.28-0.68c-0.54,0.17-0.83,0.7-0.68,1.28
		c0.05,0.19,0.12,0.37,0.18,0.55c0.19,0.63-0.07,1.21-0.63,1.39c-0.57,0.18-1.12-0.13-1.33-0.76c-0.15-0.44-0.27-0.89-0.44-1.33
		c-0.2-0.53-0.77-0.78-1.29-0.6c-0.5,0.18-0.79,0.71-0.65,1.24c0.06,0.23,0.15,0.45,0.21,0.68c0.18,0.62-0.08,1.17-0.64,1.36
		c-0.57,0.19-1.12-0.12-1.32-0.75c-0.21-0.64-0.41-1.28-0.61-1.92c-0.57-1.81-1.15-3.62-1.72-5.43c-0.14-0.44-0.39-0.75-0.86-0.82
		c-0.78-0.12-1.36,0.57-1.12,1.35c0.64,2.06,1.3,4.12,1.95,6.18c0.68,2.14,1.36,4.27,2.03,6.41c0.22,0.7-0.15,1.32-0.82,1.41
		c-0.51,0.06-0.94-0.22-1.12-0.75C8.79,23.82,8.41,22.61,8.01,21.37z"/>
	<path class="st0" d="M4.77,2.79c0.12,0,0.25,0,0.37,0c2.33,0,4.67,0,7,0c0.1,0,0.21,0,0.31,0c0.6,0.03,1.06,0.48,1.04,1.04
		c-0.01,0.57-0.46,1-1.08,1c-2.41,0-4.83,0-7.24,0c-0.12,0-0.25,0-0.46,0c0.12,0.13,0.2,0.22,0.27,0.3
		c0.39,0.44,0.39,1.05-0.01,1.45C4.58,6.97,3.98,7,3.56,6.6C2.84,5.93,2.12,5.24,1.42,4.54C1,4.12,1,3.5,1.43,3.08
		C2.13,2.38,2.83,1.7,3.54,1.03c0.43-0.41,1.05-0.39,1.44,0.01c0.4,0.4,0.4,1.01-0.01,1.44C4.9,2.56,4.8,2.62,4.71,2.68
		C4.73,2.72,4.75,2.75,4.77,2.79z"/>
</g>
</svg>
